<svg width="15" height="27" viewBox="0 0 15 27" fill="none" xmlns="http://www.w3.org/2000/svg">
<path d="M1.81252 0.375001C1.93566 0.374855 2.0576 0.399045 2.17136 0.446178C2.28511 0.493312 2.38843 0.562461 2.47538 0.649651L14.6629 12.8372C14.7499 12.9242 14.819 13.0275 14.8661 13.1412C14.9132 13.255 14.9375 13.3769 14.9375 13.5C14.9375 13.6231 14.9132 13.745 14.8661 13.8587C14.819 13.9724 14.7499 14.0758 14.6629 14.1628L2.47538 26.3503C2.29898 26.5231 2.0615 26.6194 1.81452 26.6182C1.56755 26.6169 1.33105 26.5183 1.15641 26.3436C0.981773 26.169 0.883109 25.9325 0.881862 25.6855C0.880614 25.4385 0.976884 25.201 1.14975 25.0247L12.6744 13.5L1.14975 1.97533C1.01867 1.84422 0.929413 1.6772 0.89325 1.49537C0.857089 1.31354 0.875648 1.12507 0.946586 0.953783C1.01752 0.7825 1.13765 0.636093 1.29178 0.533073C1.44592 0.430053 1.62713 0.375044 1.81252 0.375001Z" fill="white"/>
</svg>
