<svg width="250" height="250" viewBox="0 0 250 250" fill="none" xmlns="http://www.w3.org/2000/svg">
<path d="M236.502 221.502H225.002V207.502C225.002 206.252 224.002 205.502 223.002 205.502H27.252C26.002 205.502 25.2519 206.502 25.2519 207.502V221.502H13.7519C12.5019 221.502 11.752 222.502 11.752 223.502V241.502C11.752 242.752 12.7519 243.502 13.7519 243.502H237.002C238.252 243.502 239.002 242.502 239.002 241.502V223.502C238.752 222.502 237.752 221.502 236.502 221.502Z" fill="#590C30"/>
<path d="M15.4998 85.7499H234.5C236.75 85.7499 238.75 83.9999 238.75 81.4999V74.25C238.75 72.25 237.5 70.25 235.75 69.25L128.5 7.25C126.25 6 123.75 6 121.5 7.25L14.4997 69.25C12.7497 70.25 11.4997 72 11.4997 74.25V81.4999C11.2497 83.9999 13.2498 85.7499 15.4998 85.7499ZM125 38.2499C131 38.2499 135.75 42.9999 135.75 48.9999C135.75 54.9999 131 59.75 125 59.75C119 59.75 114.25 54.9999 114.25 48.9999C114.25 42.9999 119 38.2499 125 38.2499Z" fill="#590C30"/>
<path d="M60.5 101.5C61.75 101.5 62.5 100.5 62.5 99.4999V93C62.5 91.75 61.5 91 60.5 91H38.25C37 91 36.25 92 36.25 93V99.4999C36.25 100.75 37.25 101.5 38.25 101.5H41.0001V189.75H38.25C37 189.75 36.25 190.75 36.25 191.75V198.25C36.25 199.5 37.25 200.25 38.25 200.25H60.5C61.75 200.25 62.5 199.25 62.5 198.25V191.75C62.5 190.5 61.5 189.75 60.5 189.75H57.7499V101.5H60.5Z" fill="#590C30"/>
<path d="M211.5 101.5C212.75 101.5 213.5 100.5 213.5 99.4999V93C213.5 91.75 212.5 91 211.5 91H189.25C188 91 187.25 92 187.25 93V99.4999C187.25 100.75 188.25 101.5 189.25 101.5H192V189.75H189.25C188 189.75 187.25 190.75 187.25 191.75V198.25C187.25 199.5 188.25 200.25 189.25 200.25H211.5C212.75 200.25 213.5 199.25 213.5 198.25V191.75C213.5 190.5 212.5 189.75 211.5 189.75H208.75V101.5H211.5Z" fill="#590C30"/>
<path d="M173.75 101.5C175 101.5 175.75 100.5 175.75 99.4999V93C175.75 91.75 174.75 91 173.75 91H151.5C150.25 91 149.5 92 149.5 93V99.4999C149.5 100.75 150.5 101.5 151.5 101.5H154.25V189.75H151.5C150.25 189.75 149.5 190.75 149.5 191.75V198.25C149.5 199.5 150.5 200.25 151.5 200.25H173.75C175 200.25 175.75 199.25 175.75 198.25V191.75C175.75 190.5 174.75 189.75 173.75 189.75H171V101.5H173.75Z" fill="#590C30"/>
<path d="M136.002 101.5C137.252 101.5 138.002 100.5 138.002 99.4999V93C138.002 91.75 137.002 91 136.002 91H113.752C112.502 91 111.752 92 111.752 93V99.4999C111.752 100.75 112.752 101.5 113.752 101.5H116.502V189.75H113.752C112.502 189.75 111.752 190.75 111.752 191.75V198.25C111.752 199.5 112.752 200.25 113.752 200.25H136.002C137.252 200.25 138.002 199.25 138.002 198.25V191.75C138.002 190.5 137.002 189.75 136.002 189.75H133.252V101.5H136.002Z" fill="#590C30"/>
<path d="M98.2481 101.5C99.4981 101.5 100.248 100.5 100.248 99.4999V93C100.248 91.75 99.2481 91 98.2481 91H75.9982C74.7482 91 73.998 92 73.998 93V99.4999C73.998 100.75 74.9982 101.5 75.9982 101.5H78.7481V189.75H75.9982C74.7482 189.75 73.998 190.75 73.998 191.75V198.25C73.998 199.5 74.9982 200.25 75.9982 200.25H98.2481C99.4981 200.25 100.248 199.25 100.248 198.25V191.75C100.248 190.5 99.2481 189.75 98.2481 189.75H95.4981V101.5H98.2481Z" fill="#590C30"/>
</svg>
